<mxfile host="app.diagrams.net" modified="2021-07-19T06:18:23.631Z" agent="5.0 (X11)" etag="SU5SLielAz9wD9g3dqNV" version="14.8.0" type="github">
  <diagram id="-sJl1vnFAzSeyiDIy48c" name="Page-1">
    <mxGraphModel dx="1103" dy="403" grid="1" gridSize="10" guides="1" tooltips="1" connect="1" arrows="1" fold="1" page="1" pageScale="1" pageWidth="850" pageHeight="1100" math="0" shadow="0">
      <root>
        <mxCell id="0" />
        <mxCell id="1" parent="0" />
        <mxCell id="oXIK4gXNMIEvVELnEEeO-1" value="Actor" style="shape=umlActor;verticalLabelPosition=bottom;verticalAlign=top;html=1;outlineConnect=0;" parent="1" vertex="1">
          <mxGeometry x="40" y="40" width="30" height="60" as="geometry" />
        </mxCell>
        <mxCell id="oXIK4gXNMIEvVELnEEeO-2" value="Idem Mobile" style="shape=umlLifeline;perimeter=lifelinePerimeter;whiteSpace=wrap;html=1;container=1;collapsible=0;recursiveResize=0;outlineConnect=0;" parent="1" vertex="1">
          <mxGeometry x="120" y="40" width="100" height="300" as="geometry" />
        </mxCell>
        <mxCell id="u69Cct5F-gh2vJBkGJY7-1" value="api.idem.com.au" style="shape=umlLifeline;perimeter=lifelinePerimeter;whiteSpace=wrap;html=1;container=1;collapsible=0;recursiveResize=0;outlineConnect=0;" vertex="1" parent="1">
          <mxGeometry x="240" y="40" width="100" height="300" as="geometry" />
        </mxCell>
        <mxCell id="u69Cct5F-gh2vJBkGJY7-2" value="GreenID" style="shape=umlLifeline;perimeter=lifelinePerimeter;whiteSpace=wrap;html=1;container=1;collapsible=0;recursiveResize=0;outlineConnect=0;" vertex="1" parent="1">
          <mxGeometry x="360" y="40" width="100" height="300" as="geometry" />
        </mxCell>
        <mxCell id="u69Cct5F-gh2vJBkGJY7-3" value="Exchange" style="shape=umlLifeline;perimeter=lifelinePerimeter;whiteSpace=wrap;html=1;container=1;collapsible=0;recursiveResize=0;outlineConnect=0;" vertex="1" parent="1">
          <mxGeometry x="480" y="40" width="100" height="300" as="geometry" />
        </mxCell>
        <mxCell id="u69Cct5F-gh2vJBkGJY7-4" value="" style="endArrow=classic;html=1;" edge="1" parent="1" source="oXIK4gXNMIEvVELnEEeO-2" target="u69Cct5F-gh2vJBkGJY7-1">
          <mxGeometry width="50" height="50" relative="1" as="geometry">
            <mxPoint x="190" y="170" as="sourcePoint" />
            <mxPoint x="240" y="120" as="targetPoint" />
            <Array as="points">
              <mxPoint x="210" y="120" />
            </Array>
          </mxGeometry>
        </mxCell>
        <mxCell id="u69Cct5F-gh2vJBkGJY7-5" value="/POST Claim" style="edgeLabel;html=1;align=center;verticalAlign=middle;resizable=0;points=[];" vertex="1" connectable="0" parent="u69Cct5F-gh2vJBkGJY7-4">
          <mxGeometry x="-0.156" relative="1" as="geometry">
            <mxPoint x="10" y="-10" as="offset" />
          </mxGeometry>
        </mxCell>
        <mxCell id="u69Cct5F-gh2vJBkGJY7-6" value="" style="endArrow=classic;html=1;" edge="1" parent="1">
          <mxGeometry width="50" height="50" relative="1" as="geometry">
            <mxPoint x="290.0033333333333" y="160" as="sourcePoint" />
            <mxPoint x="409.67" y="160" as="targetPoint" />
            <Array as="points">
              <mxPoint x="330.17" y="160" />
            </Array>
          </mxGeometry>
        </mxCell>
        <mxCell id="u69Cct5F-gh2vJBkGJY7-7" value="/POST Verify" style="edgeLabel;html=1;align=center;verticalAlign=middle;resizable=0;points=[];" vertex="1" connectable="0" parent="u69Cct5F-gh2vJBkGJY7-6">
          <mxGeometry x="-0.156" relative="1" as="geometry">
            <mxPoint x="10" y="-10" as="offset" />
          </mxGeometry>
        </mxCell>
      </root>
    </mxGraphModel>
  </diagram>
</mxfile>
